<?xml version="1.0" encoding="UTF-8"?>
<svg id="Layer_1" xmlns="http://www.w3.org/2000/svg" version="1.1" viewBox="0 0 1080 1080">
  <!-- Generator: Adobe Illustrator 30.0.0, SVG Export Plug-In . SVG Version: 2.1.1 Build 123)  -->
  <path d="M419.24,365.44h90c51,0,79,27,66.5,88l-2.5,12c-9,43-28,51-43.5,57.5,15,9,31,26.5,22,68.5l-5.5,26c-12,58-28.5,81-99.5,81h-98l70.5-333ZM436.24,642.44h7.5c13.5,0,17.5-8.5,20.5-22l10-49c3.5-16.5,0-22-14-22h-4.5l-19.5,93ZM477.24,494.44c9,0,14.5-6,17.5-20l6.5-30.5c2.5-11,4-22-10.5-22h-7.5l-15.5,72.5h9.5Z"/>
  <path d="M563.73,698.44l20-95.5h77l-20,95.5h-77Z"/>
</svg>