<?xml version="1.0" encoding="UTF-8"?>
<svg id="Layer_1" xmlns="http://www.w3.org/2000/svg" version="1.1" viewBox="0 0 1080 1080">
  <!-- Generator: Adobe Illustrator 30.0.0, SVG Export Plug-In . SVG Version: 2.1.1 Build 123)  -->
  <path d="M316.02,195.8h179.82c101.9,0,157.84,53.95,132.87,175.82l-5,23.98c-17.98,85.91-55.94,101.9-86.91,114.88,29.97,17.98,61.94,52.95,43.96,136.86l-10.99,51.95c-23.98,115.88-56.94,161.84-198.8,161.84h-195.8L316.02,195.8ZM349.99,749.24h14.99c26.97,0,34.96-16.98,40.96-43.96l19.98-97.9c6.99-32.97,0-43.96-27.97-43.96h-8.99l-38.96,185.81ZM431.91,453.54c17.98,0,28.97-11.99,34.96-39.96l12.99-60.94c5-21.98,7.99-43.96-20.98-43.96h-14.99l-30.97,144.85h18.98Z"/>
  <path d="M604.72,861.13l39.96-190.81h153.84l-39.96,190.81h-153.84Z"/>
</svg>